<svg width="20" height="20" viewBox="0 0 20 20" fill="none" xmlns="http://www.w3.org/2000/svg">
<path d="M7.06505 11.034C7.06505 10.7834 6.86183 10.5804 6.61109 10.5804H5.02695C4.7765 10.5804 4.57324 10.7834 4.57324 11.034V12.6179C4.57324 12.8687 4.7765 13.0718 5.02695 13.0718H6.61109C6.86183 13.0718 7.06505 12.8687 7.06505 12.6179V11.034Z" fill="#C7CED4"/>
<path d="M11.0243 11.034C11.0243 10.7834 10.821 10.5804 10.5708 10.5804H8.98643C8.73597 10.5804 8.53271 10.7834 8.53271 11.034V12.6179C8.53271 12.8687 8.73597 13.0718 8.98643 13.0718H10.5708C10.821 13.0718 11.0243 12.8687 11.0243 12.6179V11.034Z" fill="#C7CED4"/>
<path d="M14.983 11.034C14.983 10.7834 14.7798 10.5804 14.5293 10.5804H12.9452C12.6944 10.5804 12.4912 10.7834 12.4912 11.034V12.6179C12.4912 12.8687 12.6944 13.0718 12.9452 13.0718H14.5293C14.7798 13.0718 14.983 12.8687 14.983 12.6179V11.034Z" fill="#C7CED4"/>
<path d="M7.06505 14.9933C7.06505 14.7424 6.86183 14.5396 6.61109 14.5396H5.02695C4.7765 14.5396 4.57324 14.7424 4.57324 14.9933V16.5769C4.57324 16.8276 4.7765 17.0307 5.02695 17.0307H6.61109C6.86183 17.0307 7.06505 16.8276 7.06505 16.5769V14.9933Z" fill="#C7CED4"/>
<path d="M11.0243 14.9933C11.0243 14.7424 10.821 14.5396 10.5708 14.5396H8.98643C8.73597 14.5396 8.53271 14.7424 8.53271 14.9933V16.5769C8.53271 16.8276 8.73597 17.0307 8.98643 17.0307H10.5708C10.821 17.0307 11.0243 16.8276 11.0243 16.5769V14.9933Z" fill="#C7CED4"/>
<path d="M14.983 14.9933C14.983 14.7424 14.7798 14.5396 14.5295 14.5396H12.9452C12.6944 14.5396 12.4912 14.7424 12.4912 14.9933V16.5769C12.4912 16.8276 12.6944 17.0307 12.9452 17.0307H14.5295C14.7798 17.0307 14.983 16.8276 14.983 16.5769V14.9933Z" fill="#C7CED4"/>
<path d="M17.8159 2.22695V4.64628C17.8159 5.73979 16.9288 6.62099 15.8354 6.62099H14.5861C13.4927 6.62099 12.5938 5.73979 12.5938 4.64628V2.21826H6.96279V4.64628C6.96279 5.73979 6.06397 6.62099 4.97071 6.62099H3.72114C2.62783 6.62099 1.74077 5.73979 1.74077 4.64628V2.22695C0.785206 2.25575 0 3.04645 0 4.01832V18.1967C0 19.1869 0.802537 20.0001 1.79268 20.0001H17.7639C18.7526 20.0001 19.5566 19.1852 19.5566 18.1967V4.01832C19.5566 3.04645 18.7714 2.25575 17.8159 2.22695ZM17.2356 17.3138C17.2356 17.7417 16.8887 18.0889 16.4606 18.0889H3.06187C2.63381 18.0889 2.28687 17.7417 2.28687 17.3138V9.99014C2.28687 9.56208 2.63377 9.21494 3.06187 9.21494H16.4606C16.8886 9.21494 17.2356 9.56208 17.2356 9.99014L17.2356 17.3138Z" fill="#C7CED4"/>
<path d="M3.71681 5.32396H4.95257C5.32766 5.32396 5.63179 5.02028 5.63179 4.64519V0.67901C5.63179 0.303881 5.32766 0 4.95257 0H3.71681C3.34168 0 3.0376 0.303881 3.0376 0.67901V4.64519C3.0376 5.02028 3.34168 5.32396 3.71681 5.32396Z" fill="#C7CED4"/>
<path d="M14.5703 5.32396H15.806C16.1809 5.32396 16.485 5.02028 16.485 4.64519V0.67901C16.4851 0.303881 16.1809 0 15.806 0H14.5703C14.1952 0 13.8911 0.303881 13.8911 0.67901V4.64519C13.8911 5.02028 14.1952 5.32396 14.5703 5.32396Z" fill="#C7CED4"/>
</svg>
